<?xml version="1.0" encoding="UTF-8" standalone="no"?><!DOCTYPE svg PUBLIC "-//W3C//DTD SVG 1.1//EN" "http://www.w3.org/Graphics/SVG/1.1/DTD/svg11.dtd"><svg width="100%" height="100%" viewBox="0 0 100 100" version="1.1" xmlns="http://www.w3.org/2000/svg" xmlns:xlink="http://www.w3.org/1999/xlink" xml:space="preserve" xmlns:serif="http://www.serif.com/" style="fill-rule:evenodd;clip-rule:evenodd;stroke-linecap:round;stroke-linejoin:round;"><path d="M42.081,27.907l7.502,-10.708c3.894,-5.578 10.282,-8.91 17.084,-8.91c11.429,0 20.833,9.405 20.833,20.834l0,0.044l0,12.5c0,20.572 -16.928,37.5 -37.5,37.5l-21.63,-0c0.552,-2.657 0.564,-4.216 0.56,-8.334l12.172,0.192c20.547,-0.983 15.428,-30.307 8.38,-39.159c-2.348,-1.264 -3.86,-2.038 -7.401,-3.959Z" style="fill:#006aff;"/><path d="M79.291,34.344c-0.273,-1.091 -0.273,-5.097 0,-6.188c0.558,-2.231 2.822,-3.589 5.053,-3.032l8.333,2.084c1.855,0.463 3.156,2.13 3.156,4.042c0,1.912 -1.301,3.579 -3.156,4.042l-8.333,2.084c-2.231,0.557 -4.495,-0.801 -5.053,-3.032Z" style="fill:#f88c46;"/><path d="M66.667,25l0.041,0" style="fill:none;fill-rule:nonzero;stroke:#fff;stroke-width:8.33px;"/><path d="M29.831,79.167l-13.491,-0l-4.594,6.557c-1.32,1.884 -3.92,2.341 -5.804,1.022c-1.883,-1.32 -2.341,-3.92 -1.021,-5.804l5.728,-8.175c0.069,-0.103 0.139,-0.204 0.212,-0.303l31.22,-44.557c0.017,0.009 0.035,0.019 0.052,0.028c1.497,-1.592 3.999,-1.762 5.701,-0.345c6.648,5.538 10.498,13.757 10.498,22.41c0,15.777 -12.802,28.799 -28.5,29.159c-0,0.003 -0.001,0.005 -0.001,0.008Z" style="fill:#d248d9;"/></svg>